<svg width="26" height="27" viewBox="0 0 26 27" fill="none" xmlns="http://www.w3.org/2000/svg">
<path d="M13.0001 2.79895C11.5774 2.79895 10.1687 3.07916 8.85436 3.62359C7.54 4.16801 6.34574 4.96599 5.33978 5.97196C3.30813 8.0036 2.16677 10.7591 2.16677 13.6323C2.1573 16.1338 3.02346 18.5599 4.6151 20.4898L2.44843 22.6565C2.29811 22.8088 2.19628 23.0022 2.15579 23.2124C2.11531 23.4226 2.13797 23.64 2.22093 23.8373C2.31091 24.0322 2.45678 24.196 2.64002 24.3079C2.82325 24.4197 3.0356 24.4746 3.2501 24.4656H13.0001C15.8733 24.4656 18.6288 23.3243 20.6604 21.2926C22.6921 19.261 23.8334 16.5055 23.8334 13.6323C23.8334 10.7591 22.6921 8.0036 20.6604 5.97196C18.6288 3.94032 15.8733 2.79895 13.0001 2.79895ZM13.0001 22.299H5.86093L6.86843 21.2915C7.0702 21.0885 7.18346 20.8139 7.18346 20.5277C7.18346 20.2415 7.0702 19.9669 6.86843 19.764C5.4499 18.347 4.56654 16.482 4.36885 14.4868C4.17116 12.4916 4.67137 10.4895 5.78426 8.82177C6.89715 7.15399 8.55387 5.92367 10.4722 5.34042C12.3904 4.75717 14.4516 4.85707 16.3045 5.62311C18.1574 6.38914 19.6874 7.77391 20.6337 9.5415C21.5801 11.3091 21.8844 13.3501 21.4947 15.3169C21.1049 17.2836 20.0453 19.0544 18.4964 20.3275C16.9475 21.6007 15.0051 22.2974 13.0001 22.299Z" fill="#999999"/>
</svg>
