<svg width="168" height="27" viewBox="0 0 168 27" fill="none" xmlns="http://www.w3.org/2000/svg">
<path d="M4.7542 21.6618L6.08049 15.9281L1.63232 12.0717L7.5088 11.5616L9.79409 6.15442L12.0794 11.5616L17.9559 12.0717L13.5077 15.9281L14.834 21.6618L9.79409 18.6215L4.7542 21.6618Z" fill="#FFD233"/>
<path d="M27.6072 21.6618L28.9335 15.9281L24.4854 12.0717L30.3618 11.5616L32.6471 6.15442L34.9324 11.5616L40.8089 12.0717L36.3607 15.9281L37.687 21.6618L32.6471 18.6215L27.6072 21.6618Z" fill="#FFD233"/>
<path d="M50.4603 21.6618L51.7865 15.9281L47.3384 12.0717L53.2148 11.5616L55.5001 6.15442L57.7854 11.5616L63.6619 12.0717L59.2137 15.9281L60.54 21.6618L55.5001 18.6215L50.4603 21.6618Z" fill="#FFD233"/>
<path d="M73.3128 21.6618L74.6391 15.9281L70.1909 12.0717L76.0674 11.5616L78.3527 6.15442L80.638 11.5616L86.5144 12.0717L82.0663 15.9281L83.3926 21.6618L78.3527 18.6215L73.3128 21.6618Z" fill="#FFD233"/>
<path d="M96.1658 21.6618L97.4921 15.9281L93.0439 12.0717L98.9204 11.5616L101.206 6.15442L103.491 11.5616L109.367 12.0717L104.919 15.9281L106.246 21.6618L101.206 18.6215L96.1658 21.6618Z" fill="#999999"/>
<path d="M121.305 18.6591V17.0364L128.464 5.70909H129.641V8.22273H128.845L123.436 16.7818V16.9091H133.077V18.6591H121.305ZM128.973 22V18.1659V17.4102V5.70909H130.85V22H128.973ZM136.693 22.1273C136.3 22.1273 135.963 21.9867 135.682 21.7057C135.401 21.4246 135.261 21.0879 135.261 20.6955C135.261 20.303 135.401 19.9663 135.682 19.6852C135.963 19.4042 136.3 19.2636 136.693 19.2636C137.085 19.2636 137.422 19.4042 137.703 19.6852C137.984 19.9663 138.124 20.303 138.124 20.6955C138.124 20.9553 138.058 21.1939 137.926 21.4114C137.798 21.6288 137.626 21.8038 137.409 21.9364C137.196 22.0636 136.958 22.1273 136.693 22.1273ZM146.176 22.2227C145.084 22.2227 144.119 22.0292 143.281 21.642C142.448 21.2496 141.799 20.7114 141.332 20.0273C140.865 19.3379 140.635 18.553 140.64 17.6727C140.635 16.9833 140.77 16.347 141.046 15.7636C141.321 15.175 141.698 14.6845 142.175 14.292C142.658 13.8943 143.196 13.6424 143.79 13.5364V13.4409C143.011 13.2394 142.39 12.8019 141.929 12.1284C141.467 11.4496 141.239 10.678 141.245 9.81364C141.239 8.98636 141.449 8.24659 141.873 7.59432C142.297 6.94205 142.881 6.42765 143.623 6.05114C144.371 5.67462 145.222 5.48636 146.176 5.48636C147.12 5.48636 147.964 5.67462 148.706 6.05114C149.448 6.42765 150.032 6.94205 150.456 7.59432C150.886 8.24659 151.103 8.98636 151.108 9.81364C151.103 10.678 150.867 11.4496 150.4 12.1284C149.939 12.8019 149.326 13.2394 148.563 13.4409V13.5364C149.151 13.6424 149.682 13.8943 150.154 14.292C150.626 14.6845 151.002 15.175 151.283 15.7636C151.564 16.347 151.707 16.9833 151.713 17.6727C151.707 18.553 151.469 19.3379 150.997 20.0273C150.53 20.7114 149.881 21.2496 149.048 21.642C148.221 22.0292 147.264 22.2227 146.176 22.2227ZM146.176 20.4727C146.914 20.4727 147.55 20.3534 148.086 20.1148C148.621 19.8761 149.035 19.5394 149.326 19.1045C149.618 18.6697 149.767 18.1606 149.772 17.5773C149.767 16.9621 149.607 16.4186 149.295 15.9466C148.982 15.4746 148.555 15.1034 148.014 14.833C147.478 14.5625 146.866 14.4273 146.176 14.4273C145.482 14.4273 144.861 14.5625 144.315 14.833C143.774 15.1034 143.347 15.4746 143.034 15.9466C142.727 16.4186 142.576 16.9621 142.581 17.5773C142.576 18.1606 142.716 18.6697 143.003 19.1045C143.294 19.5394 143.711 19.8761 144.251 20.1148C144.792 20.3534 145.434 20.4727 146.176 20.4727ZM146.176 12.7409C146.76 12.7409 147.277 12.6242 147.728 12.3909C148.184 12.1576 148.542 11.8314 148.801 11.4125C149.061 10.9936 149.194 10.503 149.199 9.94091C149.194 9.38939 149.064 8.90947 148.809 8.50114C148.555 8.0875 148.202 7.76932 147.751 7.54659C147.301 7.31856 146.776 7.20455 146.176 7.20455C145.567 7.20455 145.034 7.31856 144.578 7.54659C144.121 7.76932 143.769 8.0875 143.52 8.50114C143.27 8.90947 143.148 9.38939 143.154 9.94091C143.148 10.503 143.273 10.9936 143.528 11.4125C143.787 11.8314 144.145 12.1576 144.601 12.3909C145.057 12.6242 145.582 12.7409 146.176 12.7409ZM160.266 22.2227C159.216 22.2227 158.28 22.0424 157.458 21.6818C156.641 21.3212 155.992 20.8201 155.509 20.1784C155.032 19.5314 154.772 18.7811 154.73 17.9273H156.734C156.777 18.4523 156.957 18.9057 157.275 19.2875C157.593 19.664 158.009 19.9557 158.524 20.1625C159.038 20.3693 159.608 20.4727 160.234 20.4727C160.934 20.4727 161.555 20.3508 162.095 20.1068C162.636 19.8629 163.061 19.5235 163.368 19.0886C163.676 18.6538 163.83 18.15 163.83 17.5773C163.83 16.978 163.681 16.4504 163.384 15.9943C163.087 15.533 162.652 15.1723 162.08 14.9125C161.507 14.6527 160.807 14.5227 159.98 14.5227H158.675V12.7727H159.98C160.627 12.7727 161.194 12.6561 161.682 12.4227C162.175 12.1894 162.559 11.8606 162.835 11.4364C163.116 11.0121 163.257 10.5136 163.257 9.94091C163.257 9.38939 163.135 8.90947 162.891 8.50114C162.647 8.0928 162.302 7.77462 161.857 7.54659C161.417 7.31856 160.897 7.20455 160.298 7.20455C159.736 7.20455 159.205 7.30795 158.707 7.51477C158.214 7.71629 157.811 8.01061 157.498 8.39773C157.185 8.77955 157.015 9.24091 156.989 9.78182H155.08C155.111 8.92803 155.369 8.1803 155.851 7.53864C156.334 6.89167 156.965 6.38788 157.744 6.02727C158.529 5.66667 159.391 5.48636 160.33 5.48636C161.337 5.48636 162.202 5.69053 162.923 6.09886C163.644 6.50189 164.198 7.03485 164.585 7.69773C164.972 8.36061 165.166 9.07652 165.166 9.84545C165.166 10.7629 164.925 11.5451 164.442 12.192C163.965 12.839 163.315 13.2871 162.493 13.5364V13.6636C163.522 13.8333 164.325 14.2708 164.903 14.9761C165.481 15.6761 165.77 16.5432 165.77 17.5773C165.77 18.4629 165.529 19.2583 165.047 19.9636C164.569 20.6636 163.917 21.2152 163.09 21.6182C162.263 22.0212 161.321 22.2227 160.266 22.2227Z" fill="black"/>
</svg>
